<mxfile host="app.diagrams.net" agent="Mozilla/5.0 (Windows NT 10.0; Win64; x64) AppleWebKit/537.36 (KHTML, like Gecko) Chrome/135.0.0.0 Safari/537.36 Edg/135.0.0.0" version="26.2.7">
  <diagram id="R2lEEEUBdFMjLlhIrx00" name="Page-1">
    <mxGraphModel dx="643" dy="749" grid="1" gridSize="10" guides="1" tooltips="1" connect="1" arrows="1" fold="1" page="1" pageScale="1" pageWidth="850" pageHeight="1100" math="0" shadow="0" extFonts="Permanent Marker^https://fonts.googleapis.com/css?family=Permanent+Marker">
      <root>
        <mxCell id="0" />
        <mxCell id="1" parent="0" />
        <mxCell id="GixAwiqqqnvxr2OSCkwx-5" value="" style="edgeStyle=orthogonalEdgeStyle;rounded=0;orthogonalLoop=1;jettySize=auto;html=1;fontSize=13;" parent="1" source="GixAwiqqqnvxr2OSCkwx-1" target="GixAwiqqqnvxr2OSCkwx-2" edge="1">
          <mxGeometry relative="1" as="geometry">
            <Array as="points">
              <mxPoint x="1870" y="60" />
              <mxPoint x="1870" y="60" />
            </Array>
          </mxGeometry>
        </mxCell>
        <mxCell id="GixAwiqqqnvxr2OSCkwx-12" value="修改课程" style="edgeLabel;html=1;align=center;verticalAlign=middle;resizable=0;points=[];fontSize=13;" parent="GixAwiqqqnvxr2OSCkwx-5" vertex="1" connectable="0">
          <mxGeometry x="0.075" y="1" relative="1" as="geometry">
            <mxPoint x="-3" y="1" as="offset" />
          </mxGeometry>
        </mxCell>
        <mxCell id="GixAwiqqqnvxr2OSCkwx-1" value="管理员" style="rounded=0;whiteSpace=wrap;html=1;fontSize=13;" parent="1" vertex="1">
          <mxGeometry x="1750" y="50" width="80" height="70" as="geometry" />
        </mxCell>
        <mxCell id="GixAwiqqqnvxr2OSCkwx-2" value="健身房运营系统" style="rounded=1;whiteSpace=wrap;html=1;fontSize=13;" parent="1" vertex="1">
          <mxGeometry x="1910" y="30" width="140" height="100" as="geometry" />
        </mxCell>
        <mxCell id="GixAwiqqqnvxr2OSCkwx-3" value="教练" style="rounded=0;whiteSpace=wrap;html=1;fontSize=13;" parent="1" vertex="1">
          <mxGeometry x="1920" y="180" width="80" height="70" as="geometry" />
        </mxCell>
        <mxCell id="GixAwiqqqnvxr2OSCkwx-4" value="用户" style="rounded=0;whiteSpace=wrap;html=1;fontSize=13;" parent="1" vertex="1">
          <mxGeometry x="2170" y="45" width="80" height="70" as="geometry" />
        </mxCell>
        <mxCell id="GixAwiqqqnvxr2OSCkwx-7" value="" style="edgeStyle=orthogonalEdgeStyle;rounded=0;orthogonalLoop=1;jettySize=auto;html=1;fontSize=13;" parent="1" edge="1">
          <mxGeometry relative="1" as="geometry">
            <mxPoint x="2050" y="60" as="sourcePoint" />
            <mxPoint x="2170" y="60" as="targetPoint" />
            <Array as="points">
              <mxPoint x="2090" y="60" />
              <mxPoint x="2090" y="60" />
            </Array>
          </mxGeometry>
        </mxCell>
        <mxCell id="GixAwiqqqnvxr2OSCkwx-10" value="课程信息&lt;div&gt;课程规划信息&lt;/div&gt;" style="edgeLabel;html=1;align=center;verticalAlign=middle;resizable=0;points=[];fontSize=13;" parent="GixAwiqqqnvxr2OSCkwx-7" vertex="1" connectable="0">
          <mxGeometry x="-0.0708" y="-1" relative="1" as="geometry">
            <mxPoint as="offset" />
          </mxGeometry>
        </mxCell>
        <mxCell id="GixAwiqqqnvxr2OSCkwx-8" value="" style="edgeStyle=orthogonalEdgeStyle;rounded=0;orthogonalLoop=1;jettySize=auto;html=1;fontSize=13;" parent="1" edge="1">
          <mxGeometry relative="1" as="geometry">
            <mxPoint x="2170" y="90" as="sourcePoint" />
            <mxPoint x="2050" y="90" as="targetPoint" />
            <Array as="points">
              <mxPoint x="2090" y="90" />
              <mxPoint x="2090" y="90" />
            </Array>
          </mxGeometry>
        </mxCell>
        <mxCell id="GixAwiqqqnvxr2OSCkwx-11" value="预定课程" style="edgeLabel;html=1;align=center;verticalAlign=middle;resizable=0;points=[];fontSize=13;" parent="GixAwiqqqnvxr2OSCkwx-8" vertex="1" connectable="0">
          <mxGeometry x="-0.0125" y="1" relative="1" as="geometry">
            <mxPoint as="offset" />
          </mxGeometry>
        </mxCell>
        <mxCell id="GixAwiqqqnvxr2OSCkwx-9" value="" style="edgeStyle=orthogonalEdgeStyle;rounded=0;orthogonalLoop=1;jettySize=auto;html=1;fontSize=13;" parent="1" edge="1">
          <mxGeometry relative="1" as="geometry">
            <mxPoint x="1910" y="90" as="sourcePoint" />
            <mxPoint x="1830" y="90" as="targetPoint" />
            <Array as="points">
              <mxPoint x="1870" y="90" />
              <mxPoint x="1870" y="90" />
            </Array>
          </mxGeometry>
        </mxCell>
        <mxCell id="GixAwiqqqnvxr2OSCkwx-13" value="用户信息" style="edgeLabel;html=1;align=center;verticalAlign=middle;resizable=0;points=[];fontSize=13;" parent="GixAwiqqqnvxr2OSCkwx-9" vertex="1" connectable="0">
          <mxGeometry x="-0.0125" y="1" relative="1" as="geometry">
            <mxPoint as="offset" />
          </mxGeometry>
        </mxCell>
        <mxCell id="GixAwiqqqnvxr2OSCkwx-15" value="" style="edgeStyle=orthogonalEdgeStyle;rounded=0;orthogonalLoop=1;jettySize=auto;html=1;fontSize=13;" parent="1" edge="1">
          <mxGeometry relative="1" as="geometry">
            <mxPoint x="1910" y="110" as="sourcePoint" />
            <mxPoint x="1830" y="110" as="targetPoint" />
            <Array as="points">
              <mxPoint x="1870" y="110" />
              <mxPoint x="1870" y="110" />
            </Array>
          </mxGeometry>
        </mxCell>
        <mxCell id="GixAwiqqqnvxr2OSCkwx-16" value="课程信息" style="edgeLabel;html=1;align=center;verticalAlign=middle;resizable=0;points=[];fontSize=13;" parent="GixAwiqqqnvxr2OSCkwx-15" vertex="1" connectable="0">
          <mxGeometry x="-0.0125" y="1" relative="1" as="geometry">
            <mxPoint y="-1" as="offset" />
          </mxGeometry>
        </mxCell>
        <mxCell id="GixAwiqqqnvxr2OSCkwx-18" value="" style="edgeStyle=orthogonalEdgeStyle;rounded=0;orthogonalLoop=1;jettySize=auto;html=1;exitX=0.25;exitY=0;exitDx=0;exitDy=0;entryX=0.429;entryY=1;entryDx=0;entryDy=0;entryPerimeter=0;fontSize=13;" parent="1" source="GixAwiqqqnvxr2OSCkwx-3" edge="1">
          <mxGeometry relative="1" as="geometry">
            <mxPoint x="1940" y="170" as="sourcePoint" />
            <mxPoint x="1940.0600000000002" y="130" as="targetPoint" />
            <Array as="points" />
          </mxGeometry>
        </mxCell>
        <mxCell id="GixAwiqqqnvxr2OSCkwx-23" value="课程信息" style="edgeLabel;html=1;align=center;verticalAlign=middle;resizable=0;points=[];fontSize=13;" parent="GixAwiqqqnvxr2OSCkwx-18" vertex="1" connectable="0">
          <mxGeometry x="0.1902" y="1" relative="1" as="geometry">
            <mxPoint y="10" as="offset" />
          </mxGeometry>
        </mxCell>
        <mxCell id="GixAwiqqqnvxr2OSCkwx-21" value="" style="edgeStyle=orthogonalEdgeStyle;rounded=0;orthogonalLoop=1;jettySize=auto;html=1;exitX=0.25;exitY=0;exitDx=0;exitDy=0;entryX=0.429;entryY=1;entryDx=0;entryDy=0;entryPerimeter=0;fontSize=13;" parent="1" edge="1">
          <mxGeometry relative="1" as="geometry">
            <mxPoint x="1987" y="130" as="sourcePoint" />
            <mxPoint x="1987" y="180" as="targetPoint" />
            <Array as="points" />
          </mxGeometry>
        </mxCell>
        <mxCell id="GixAwiqqqnvxr2OSCkwx-24" value="课程规划" style="edgeLabel;html=1;align=center;verticalAlign=middle;resizable=0;points=[];fontSize=13;" parent="GixAwiqqqnvxr2OSCkwx-21" vertex="1" connectable="0">
          <mxGeometry x="-0.1176" relative="1" as="geometry">
            <mxPoint y="-12" as="offset" />
          </mxGeometry>
        </mxCell>
        <mxCell id="GixAwiqqqnvxr2OSCkwx-36" value="用户文档" style="html=1;dashed=0;whiteSpace=wrap;shape=partialRectangle;right=0;left=0;fontSize=15;" parent="1" vertex="1">
          <mxGeometry x="3089.8599999999997" y="355" width="100" height="90" as="geometry" />
        </mxCell>
        <mxCell id="WjA-gEvJJwSOxTceD3pm-30" style="edgeStyle=orthogonalEdgeStyle;rounded=0;orthogonalLoop=1;jettySize=auto;html=1;exitX=0.75;exitY=1;exitDx=0;exitDy=0;entryX=0;entryY=0.25;entryDx=0;entryDy=0;fontSize=15;" edge="1" parent="1" source="WjA-gEvJJwSOxTceD3pm-1" target="WjA-gEvJJwSOxTceD3pm-29">
          <mxGeometry relative="1" as="geometry" />
        </mxCell>
        <mxCell id="WjA-gEvJJwSOxTceD3pm-32" value="预定课程" style="edgeLabel;html=1;align=center;verticalAlign=middle;resizable=0;points=[];fontSize=15;" vertex="1" connectable="0" parent="WjA-gEvJJwSOxTceD3pm-30">
          <mxGeometry x="-0.3123" relative="1" as="geometry">
            <mxPoint as="offset" />
          </mxGeometry>
        </mxCell>
        <mxCell id="WjA-gEvJJwSOxTceD3pm-60" style="edgeStyle=orthogonalEdgeStyle;rounded=0;orthogonalLoop=1;jettySize=auto;html=1;exitDx=0;exitDy=0;fontSize=15;" edge="1" parent="1" source="WjA-gEvJJwSOxTceD3pm-1">
          <mxGeometry relative="1" as="geometry">
            <mxPoint x="2559.8599999999997" y="490" as="targetPoint" />
            <Array as="points">
              <mxPoint x="2560" y="380" />
            </Array>
          </mxGeometry>
        </mxCell>
        <mxCell id="WjA-gEvJJwSOxTceD3pm-62" value="退款&lt;div&gt;转让&lt;/div&gt;" style="edgeLabel;html=1;align=center;verticalAlign=middle;resizable=0;points=[];fontSize=15;" vertex="1" connectable="0" parent="WjA-gEvJJwSOxTceD3pm-60">
          <mxGeometry x="-0.2053" y="3" relative="1" as="geometry">
            <mxPoint as="offset" />
          </mxGeometry>
        </mxCell>
        <mxCell id="WjA-gEvJJwSOxTceD3pm-1" value="用户" style="rounded=0;whiteSpace=wrap;html=1;fontSize=15;" vertex="1" parent="1">
          <mxGeometry x="2669.8599999999997" y="370" width="80" height="70" as="geometry" />
        </mxCell>
        <mxCell id="WjA-gEvJJwSOxTceD3pm-21" style="edgeStyle=orthogonalEdgeStyle;rounded=0;orthogonalLoop=1;jettySize=auto;html=1;exitDx=0;exitDy=0;entryDx=0;entryDy=0;fontSize=15;entryPerimeter=0;" edge="1" parent="1" target="GixAwiqqqnvxr2OSCkwx-36">
          <mxGeometry relative="1" as="geometry">
            <mxPoint x="3059.8599999999997" y="375" as="targetPoint" />
            <mxPoint x="2974.8599999999997" y="375" as="sourcePoint" />
            <Array as="points">
              <mxPoint x="2974.8599999999997" y="376" />
            </Array>
          </mxGeometry>
        </mxCell>
        <mxCell id="WjA-gEvJJwSOxTceD3pm-24" value="用户注册信息" style="edgeLabel;html=1;align=center;verticalAlign=middle;resizable=0;points=[];fontSize=15;" vertex="1" connectable="0" parent="WjA-gEvJJwSOxTceD3pm-21">
          <mxGeometry x="-0.1317" relative="1" as="geometry">
            <mxPoint x="6" y="-16" as="offset" />
          </mxGeometry>
        </mxCell>
        <mxCell id="WjA-gEvJJwSOxTceD3pm-89" style="edgeStyle=orthogonalEdgeStyle;rounded=0;orthogonalLoop=1;jettySize=auto;html=1;exitX=0.25;exitY=0;exitDx=0;exitDy=0;entryX=0;entryY=0.25;entryDx=0;entryDy=0;fontSize=15;" edge="1" parent="1" source="WjA-gEvJJwSOxTceD3pm-3" target="WjA-gEvJJwSOxTceD3pm-55">
          <mxGeometry relative="1" as="geometry" />
        </mxCell>
        <mxCell id="WjA-gEvJJwSOxTceD3pm-90" value="用户注册信息" style="edgeLabel;html=1;align=center;verticalAlign=middle;resizable=0;points=[];fontSize=15;" vertex="1" connectable="0" parent="WjA-gEvJJwSOxTceD3pm-89">
          <mxGeometry x="0.3895" y="-4" relative="1" as="geometry">
            <mxPoint as="offset" />
          </mxGeometry>
        </mxCell>
        <mxCell id="WjA-gEvJJwSOxTceD3pm-134" style="edgeStyle=orthogonalEdgeStyle;rounded=0;orthogonalLoop=1;jettySize=auto;html=1;exitX=0.75;exitY=1;exitDx=0;exitDy=0;entryX=0;entryY=0.75;entryDx=0;entryDy=0;" edge="1" parent="1" source="WjA-gEvJJwSOxTceD3pm-3" target="WjA-gEvJJwSOxTceD3pm-18">
          <mxGeometry relative="1" as="geometry">
            <Array as="points">
              <mxPoint x="2919.8599999999997" y="455" />
              <mxPoint x="2919.8599999999997" y="563" />
            </Array>
          </mxGeometry>
        </mxCell>
        <mxCell id="WjA-gEvJJwSOxTceD3pm-135" value="登录结果" style="edgeLabel;html=1;align=center;verticalAlign=middle;resizable=0;points=[];fontSize=15;" vertex="1" connectable="0" parent="WjA-gEvJJwSOxTceD3pm-134">
          <mxGeometry x="-0.2612" y="-4" relative="1" as="geometry">
            <mxPoint x="24" y="52" as="offset" />
          </mxGeometry>
        </mxCell>
        <mxCell id="WjA-gEvJJwSOxTceD3pm-3" value="1. 用户管理" style="rounded=1;whiteSpace=wrap;html=1;fontSize=15;" vertex="1" parent="1">
          <mxGeometry x="2834.8599999999997" y="355" width="140" height="100" as="geometry" />
        </mxCell>
        <mxCell id="WjA-gEvJJwSOxTceD3pm-4" style="edgeStyle=orthogonalEdgeStyle;rounded=0;orthogonalLoop=1;jettySize=auto;html=1;exitX=1;exitY=0.25;exitDx=0;exitDy=0;entryX=-0.02;entryY=0.332;entryDx=0;entryDy=0;entryPerimeter=0;fontSize=15;" edge="1" parent="1" source="WjA-gEvJJwSOxTceD3pm-1" target="WjA-gEvJJwSOxTceD3pm-3">
          <mxGeometry relative="1" as="geometry" />
        </mxCell>
        <mxCell id="WjA-gEvJJwSOxTceD3pm-6" value="用户信息&lt;div&gt;注册信息&lt;/div&gt;" style="edgeLabel;html=1;align=center;verticalAlign=middle;resizable=0;points=[];fontSize=15;" vertex="1" connectable="0" parent="WjA-gEvJJwSOxTceD3pm-4">
          <mxGeometry x="0.0245" y="4" relative="1" as="geometry">
            <mxPoint x="-7" y="3" as="offset" />
          </mxGeometry>
        </mxCell>
        <mxCell id="WjA-gEvJJwSOxTceD3pm-35" style="edgeStyle=orthogonalEdgeStyle;rounded=0;orthogonalLoop=1;jettySize=auto;html=1;entryDx=0;entryDy=0;exitX=0.75;exitY=1;exitDx=0;exitDy=0;fontSize=15;" edge="1" parent="1" source="WjA-gEvJJwSOxTceD3pm-18" target="WjA-gEvJJwSOxTceD3pm-29">
          <mxGeometry relative="1" as="geometry">
            <mxPoint x="3079.8599999999997" y="650" as="sourcePoint" />
            <Array as="points">
              <mxPoint x="3069.8599999999997" y="580" />
              <mxPoint x="3069.8599999999997" y="670" />
            </Array>
          </mxGeometry>
        </mxCell>
        <mxCell id="WjA-gEvJJwSOxTceD3pm-41" value="查看相关会员" style="edgeLabel;html=1;align=center;verticalAlign=middle;resizable=0;points=[];fontSize=15;" vertex="1" connectable="0" parent="WjA-gEvJJwSOxTceD3pm-35">
          <mxGeometry x="-0.2596" relative="1" as="geometry">
            <mxPoint x="-20" y="46" as="offset" />
          </mxGeometry>
        </mxCell>
        <mxCell id="WjA-gEvJJwSOxTceD3pm-142" style="edgeStyle=orthogonalEdgeStyle;rounded=0;orthogonalLoop=1;jettySize=auto;html=1;exitX=0.75;exitY=1;exitDx=0;exitDy=0;entryX=1;entryY=0.75;entryDx=0;entryDy=0;" edge="1" parent="1" source="WjA-gEvJJwSOxTceD3pm-18" target="WjA-gEvJJwSOxTceD3pm-29">
          <mxGeometry relative="1" as="geometry">
            <mxPoint x="3109.3599999999997" y="715" as="targetPoint" />
          </mxGeometry>
        </mxCell>
        <mxCell id="WjA-gEvJJwSOxTceD3pm-143" value="提取收益" style="edgeLabel;html=1;align=center;verticalAlign=middle;resizable=0;points=[];fontSize=15;" vertex="1" connectable="0" parent="WjA-gEvJJwSOxTceD3pm-142">
          <mxGeometry x="-0.68" y="-4" relative="1" as="geometry">
            <mxPoint as="offset" />
          </mxGeometry>
        </mxCell>
        <mxCell id="WjA-gEvJJwSOxTceD3pm-18" value="教练" style="rounded=0;whiteSpace=wrap;html=1;fontSize=15;" vertex="1" parent="1">
          <mxGeometry x="2989.8599999999997" y="510" width="160" height="70" as="geometry" />
        </mxCell>
        <mxCell id="WjA-gEvJJwSOxTceD3pm-23" style="edgeStyle=orthogonalEdgeStyle;rounded=0;orthogonalLoop=1;jettySize=auto;html=1;exitDx=0;exitDy=0;entryDx=0;entryDy=0;fontSize=15;exitX=0;exitY=0.833;exitPerimeter=0;" edge="1" parent="1" source="GixAwiqqqnvxr2OSCkwx-36">
          <mxGeometry relative="1" as="geometry">
            <mxPoint x="2974.8599999999997" y="430" as="targetPoint" />
            <mxPoint x="3059.8599999999997" y="430" as="sourcePoint" />
          </mxGeometry>
        </mxCell>
        <mxCell id="WjA-gEvJJwSOxTceD3pm-25" value="用户信息" style="edgeLabel;html=1;align=center;verticalAlign=middle;resizable=0;points=[];fontSize=15;" vertex="1" connectable="0" parent="WjA-gEvJJwSOxTceD3pm-23">
          <mxGeometry x="0.0868" y="-1" relative="1" as="geometry">
            <mxPoint y="11" as="offset" />
          </mxGeometry>
        </mxCell>
        <mxCell id="WjA-gEvJJwSOxTceD3pm-26" style="edgeStyle=orthogonalEdgeStyle;rounded=0;orthogonalLoop=1;jettySize=auto;html=1;exitDx=0;exitDy=0;entryDx=0;entryDy=0;entryPerimeter=0;fontSize=15;" edge="1" parent="1" source="WjA-gEvJJwSOxTceD3pm-18" target="WjA-gEvJJwSOxTceD3pm-3">
          <mxGeometry relative="1" as="geometry">
            <Array as="points">
              <mxPoint x="2949.8599999999997" y="545" />
            </Array>
          </mxGeometry>
        </mxCell>
        <mxCell id="WjA-gEvJJwSOxTceD3pm-27" value="教练注册信息" style="edgeLabel;html=1;align=center;verticalAlign=middle;resizable=0;points=[];fontSize=15;" vertex="1" connectable="0" parent="WjA-gEvJJwSOxTceD3pm-26">
          <mxGeometry x="-0.3337" y="-1" relative="1" as="geometry">
            <mxPoint x="29" y="-54" as="offset" />
          </mxGeometry>
        </mxCell>
        <mxCell id="WjA-gEvJJwSOxTceD3pm-31" style="edgeStyle=orthogonalEdgeStyle;rounded=0;orthogonalLoop=1;jettySize=auto;html=1;exitX=0;exitY=0.75;exitDx=0;exitDy=0;entryX=0.25;entryY=1;entryDx=0;entryDy=0;fontSize=15;" edge="1" parent="1" source="WjA-gEvJJwSOxTceD3pm-29" target="WjA-gEvJJwSOxTceD3pm-1">
          <mxGeometry relative="1" as="geometry" />
        </mxCell>
        <mxCell id="WjA-gEvJJwSOxTceD3pm-33" value="课程信息&lt;div&gt;课程规划信息&lt;/div&gt;" style="edgeLabel;html=1;align=center;verticalAlign=middle;resizable=0;points=[];fontSize=15;" vertex="1" connectable="0" parent="WjA-gEvJJwSOxTceD3pm-31">
          <mxGeometry x="0.0016" y="-2" relative="1" as="geometry">
            <mxPoint x="58" y="60" as="offset" />
          </mxGeometry>
        </mxCell>
        <mxCell id="WjA-gEvJJwSOxTceD3pm-34" style="edgeStyle=orthogonalEdgeStyle;rounded=0;orthogonalLoop=1;jettySize=auto;html=1;exitX=1;exitY=0.25;exitDx=0;exitDy=0;entryX=0.25;entryY=1;entryDx=0;entryDy=0;fontSize=15;" edge="1" parent="1" source="WjA-gEvJJwSOxTceD3pm-29" target="WjA-gEvJJwSOxTceD3pm-18">
          <mxGeometry relative="1" as="geometry" />
        </mxCell>
        <mxCell id="WjA-gEvJJwSOxTceD3pm-36" value="课程信息" style="edgeLabel;html=1;align=center;verticalAlign=middle;resizable=0;points=[];fontSize=15;" vertex="1" connectable="0" parent="WjA-gEvJJwSOxTceD3pm-34">
          <mxGeometry x="0.3303" y="1" relative="1" as="geometry">
            <mxPoint as="offset" />
          </mxGeometry>
        </mxCell>
        <mxCell id="WjA-gEvJJwSOxTceD3pm-87" style="edgeStyle=orthogonalEdgeStyle;rounded=0;orthogonalLoop=1;jettySize=auto;html=1;exitDx=0;exitDy=0;entryDx=0;entryDy=0;fontSize=15;" edge="1" parent="1" source="WjA-gEvJJwSOxTceD3pm-29" target="WjA-gEvJJwSOxTceD3pm-55">
          <mxGeometry relative="1" as="geometry">
            <Array as="points">
              <mxPoint x="2919.8599999999997" y="960" />
            </Array>
          </mxGeometry>
        </mxCell>
        <mxCell id="WjA-gEvJJwSOxTceD3pm-88" value="存入会员信息&lt;div&gt;修改会员信息&lt;/div&gt;" style="edgeLabel;html=1;align=center;verticalAlign=middle;resizable=0;points=[];fontSize=15;" vertex="1" connectable="0" parent="WjA-gEvJJwSOxTceD3pm-87">
          <mxGeometry x="0.3854" relative="1" as="geometry">
            <mxPoint as="offset" />
          </mxGeometry>
        </mxCell>
        <mxCell id="WjA-gEvJJwSOxTceD3pm-29" value="2. 会员管理" style="rounded=1;whiteSpace=wrap;html=1;fontSize=15;" vertex="1" parent="1">
          <mxGeometry x="2834.8599999999997" y="620" width="140" height="100" as="geometry" />
        </mxCell>
        <mxCell id="WjA-gEvJJwSOxTceD3pm-37" value="会员文档" style="html=1;dashed=0;whiteSpace=wrap;shape=partialRectangle;right=0;left=0;fontSize=15;" vertex="1" parent="1">
          <mxGeometry x="2589.8599999999997" y="770" width="100" height="90" as="geometry" />
        </mxCell>
        <mxCell id="WjA-gEvJJwSOxTceD3pm-45" style="edgeStyle=orthogonalEdgeStyle;rounded=0;orthogonalLoop=1;jettySize=auto;html=1;exitX=1;exitY=0.25;exitDx=0;exitDy=0;entryX=0.124;entryY=0.997;entryDx=0;entryDy=0;entryPerimeter=0;fontSize=15;" edge="1" parent="1" source="WjA-gEvJJwSOxTceD3pm-37" target="WjA-gEvJJwSOxTceD3pm-29">
          <mxGeometry relative="1" as="geometry" />
        </mxCell>
        <mxCell id="WjA-gEvJJwSOxTceD3pm-46" value="购买会员信息" style="edgeLabel;html=1;align=center;verticalAlign=middle;resizable=0;points=[];fontSize=15;" vertex="1" connectable="0" parent="WjA-gEvJJwSOxTceD3pm-45">
          <mxGeometry x="-0.3937" y="-1" relative="1" as="geometry">
            <mxPoint as="offset" />
          </mxGeometry>
        </mxCell>
        <mxCell id="WjA-gEvJJwSOxTceD3pm-47" style="edgeStyle=orthogonalEdgeStyle;rounded=0;orthogonalLoop=1;jettySize=auto;html=1;exitX=0.25;exitY=1;exitDx=0;exitDy=0;entryX=1.003;entryY=0.636;entryDx=0;entryDy=0;entryPerimeter=0;fontSize=15;" edge="1" parent="1" source="WjA-gEvJJwSOxTceD3pm-29" target="WjA-gEvJJwSOxTceD3pm-37">
          <mxGeometry relative="1" as="geometry" />
        </mxCell>
        <mxCell id="WjA-gEvJJwSOxTceD3pm-48" value="存入会员信息&lt;div&gt;修改会员信息&lt;/div&gt;" style="edgeLabel;html=1;align=center;verticalAlign=middle;resizable=0;points=[];fontSize=15;" vertex="1" connectable="0" parent="WjA-gEvJJwSOxTceD3pm-47">
          <mxGeometry x="0.3367" y="-3" relative="1" as="geometry">
            <mxPoint x="-6" y="6" as="offset" />
          </mxGeometry>
        </mxCell>
        <mxCell id="WjA-gEvJJwSOxTceD3pm-50" style="edgeStyle=orthogonalEdgeStyle;rounded=0;orthogonalLoop=1;jettySize=auto;html=1;exitX=0;exitY=0.25;exitDx=0;exitDy=0;entryX=0.75;entryY=1;entryDx=0;entryDy=0;fontSize=15;" edge="1" parent="1" source="WjA-gEvJJwSOxTceD3pm-49" target="WjA-gEvJJwSOxTceD3pm-29">
          <mxGeometry relative="1" as="geometry" />
        </mxCell>
        <mxCell id="WjA-gEvJJwSOxTceD3pm-52" value="课程信息" style="edgeLabel;html=1;align=center;verticalAlign=middle;resizable=0;points=[];fontSize=15;" vertex="1" connectable="0" parent="WjA-gEvJJwSOxTceD3pm-50">
          <mxGeometry x="-0.0917" y="-1" relative="1" as="geometry">
            <mxPoint as="offset" />
          </mxGeometry>
        </mxCell>
        <mxCell id="WjA-gEvJJwSOxTceD3pm-49" value="课程文档" style="html=1;dashed=0;whiteSpace=wrap;shape=partialRectangle;right=0;left=0;fontSize=15;" vertex="1" parent="1">
          <mxGeometry x="3039.8599999999997" y="765" width="100" height="90" as="geometry" />
        </mxCell>
        <mxCell id="WjA-gEvJJwSOxTceD3pm-53" value="管理员" style="rounded=0;whiteSpace=wrap;html=1;fontSize=15;" vertex="1" parent="1">
          <mxGeometry x="3309.8599999999997" y="655" width="80" height="70" as="geometry" />
        </mxCell>
        <mxCell id="WjA-gEvJJwSOxTceD3pm-55" value="区块链" style="html=1;dashed=0;whiteSpace=wrap;shape=partialRectangle;right=0;left=0;fontSize=15;" vertex="1" parent="1">
          <mxGeometry x="2449.8599999999997" y="880" width="100" height="90" as="geometry" />
        </mxCell>
        <mxCell id="WjA-gEvJJwSOxTceD3pm-63" style="edgeStyle=orthogonalEdgeStyle;rounded=0;orthogonalLoop=1;jettySize=auto;html=1;exitX=0.75;exitY=1;exitDx=0;exitDy=0;entryX=0.5;entryY=0;entryDx=0;entryDy=0;fontSize=15;" edge="1" parent="1" source="WjA-gEvJJwSOxTceD3pm-61" target="WjA-gEvJJwSOxTceD3pm-37">
          <mxGeometry relative="1" as="geometry" />
        </mxCell>
        <mxCell id="WjA-gEvJJwSOxTceD3pm-64" value="修改会员信息" style="edgeLabel;html=1;align=center;verticalAlign=middle;resizable=0;points=[];fontSize=15;" vertex="1" connectable="0" parent="WjA-gEvJJwSOxTceD3pm-63">
          <mxGeometry x="-0.5242" relative="1" as="geometry">
            <mxPoint x="15" as="offset" />
          </mxGeometry>
        </mxCell>
        <mxCell id="WjA-gEvJJwSOxTceD3pm-65" style="edgeStyle=orthogonalEdgeStyle;rounded=0;orthogonalLoop=1;jettySize=auto;html=1;exitDx=0;exitDy=0;entryDx=0;entryDy=0;fontSize=15;" edge="1" parent="1" source="WjA-gEvJJwSOxTceD3pm-61" target="WjA-gEvJJwSOxTceD3pm-55">
          <mxGeometry relative="1" as="geometry" />
        </mxCell>
        <mxCell id="WjA-gEvJJwSOxTceD3pm-66" value="修改会员信息" style="edgeLabel;html=1;align=center;verticalAlign=middle;resizable=0;points=[];fontSize=15;" vertex="1" connectable="0" parent="WjA-gEvJJwSOxTceD3pm-65">
          <mxGeometry x="-0.7051" y="3" relative="1" as="geometry">
            <mxPoint y="63" as="offset" />
          </mxGeometry>
        </mxCell>
        <mxCell id="WjA-gEvJJwSOxTceD3pm-215" style="edgeStyle=orthogonalEdgeStyle;rounded=0;orthogonalLoop=1;jettySize=auto;html=1;exitX=0.75;exitY=0;exitDx=0;exitDy=0;entryX=0;entryY=0.75;entryDx=0;entryDy=0;" edge="1" parent="1" source="WjA-gEvJJwSOxTceD3pm-61" target="WjA-gEvJJwSOxTceD3pm-1">
          <mxGeometry relative="1" as="geometry" />
        </mxCell>
        <mxCell id="WjA-gEvJJwSOxTceD3pm-216" value="&lt;font style=&quot;font-size: 15px;&quot;&gt;操作结果&lt;/font&gt;" style="edgeLabel;html=1;align=center;verticalAlign=middle;resizable=0;points=[];" vertex="1" connectable="0" parent="WjA-gEvJJwSOxTceD3pm-215">
          <mxGeometry x="-0.3357" relative="1" as="geometry">
            <mxPoint as="offset" />
          </mxGeometry>
        </mxCell>
        <mxCell id="WjA-gEvJJwSOxTceD3pm-61" value="3. 用户会员操作" style="rounded=1;whiteSpace=wrap;html=1;fontSize=15;" vertex="1" parent="1">
          <mxGeometry x="2489.8599999999997" y="488" width="140" height="100" as="geometry" />
        </mxCell>
        <mxCell id="WjA-gEvJJwSOxTceD3pm-68" style="edgeStyle=orthogonalEdgeStyle;rounded=0;orthogonalLoop=1;jettySize=auto;html=1;exitDx=0;exitDy=0;entryDx=0;entryDy=0;entryPerimeter=0;fontSize=15;exitX=0;exitY=0.2;exitPerimeter=0;" edge="1" parent="1" source="WjA-gEvJJwSOxTceD3pm-177" target="WjA-gEvJJwSOxTceD3pm-49">
          <mxGeometry relative="1" as="geometry">
            <mxPoint x="3279.8599999999997" y="785" as="sourcePoint" />
            <Array as="points">
              <mxPoint x="3219.8599999999997" y="815" />
              <mxPoint x="3219.8599999999997" y="815" />
            </Array>
          </mxGeometry>
        </mxCell>
        <mxCell id="WjA-gEvJJwSOxTceD3pm-180" value="修改信息" style="edgeLabel;html=1;align=center;verticalAlign=middle;resizable=0;points=[];fontSize=15;" vertex="1" connectable="0" parent="WjA-gEvJJwSOxTceD3pm-68">
          <mxGeometry x="-0.0306" y="1" relative="1" as="geometry">
            <mxPoint as="offset" />
          </mxGeometry>
        </mxCell>
        <mxCell id="WjA-gEvJJwSOxTceD3pm-73" style="edgeStyle=orthogonalEdgeStyle;rounded=0;orthogonalLoop=1;jettySize=auto;html=1;exitDx=0;exitDy=0;entryDx=0;entryDy=0;entryPerimeter=0;exitPerimeter=0;fontSize=15;entryX=0.607;entryY=0.976;" edge="1" parent="1" source="WjA-gEvJJwSOxTceD3pm-177" target="WjA-gEvJJwSOxTceD3pm-53">
          <mxGeometry relative="1" as="geometry">
            <mxPoint x="3183.8599999999997" y="810" as="sourcePoint" />
            <mxPoint x="3279.8599999999997" y="811.9999999999998" as="targetPoint" />
            <Array as="points">
              <mxPoint x="3358.8599999999997" y="812" />
            </Array>
          </mxGeometry>
        </mxCell>
        <mxCell id="WjA-gEvJJwSOxTceD3pm-183" value="课程信息&lt;div&gt;用户信息&lt;/div&gt;" style="edgeLabel;html=1;align=center;verticalAlign=middle;resizable=0;points=[];fontSize=15;" vertex="1" connectable="0" parent="WjA-gEvJJwSOxTceD3pm-73">
          <mxGeometry x="-0.2188" y="1" relative="1" as="geometry">
            <mxPoint x="22" y="3" as="offset" />
          </mxGeometry>
        </mxCell>
        <mxCell id="WjA-gEvJJwSOxTceD3pm-91" style="edgeStyle=orthogonalEdgeStyle;rounded=0;orthogonalLoop=1;jettySize=auto;html=1;exitX=0;exitY=0.75;exitDx=0;exitDy=0;entryX=1;entryY=0.726;entryDx=0;entryDy=0;entryPerimeter=0;fontSize=13;" edge="1" parent="1">
          <mxGeometry relative="1" as="geometry">
            <mxPoint x="2170" y="110.5" as="sourcePoint" />
            <mxPoint x="2050" y="110.60000000000002" as="targetPoint" />
          </mxGeometry>
        </mxCell>
        <mxCell id="WjA-gEvJJwSOxTceD3pm-92" value="用户注册" style="edgeLabel;html=1;align=center;verticalAlign=middle;resizable=0;points=[];fontSize=13;" vertex="1" connectable="0" parent="WjA-gEvJJwSOxTceD3pm-91">
          <mxGeometry x="-0.1374" y="1" relative="1" as="geometry">
            <mxPoint x="1" as="offset" />
          </mxGeometry>
        </mxCell>
        <mxCell id="WjA-gEvJJwSOxTceD3pm-96" style="edgeStyle=orthogonalEdgeStyle;rounded=0;orthogonalLoop=1;jettySize=auto;html=1;exitX=1;exitY=0.25;exitDx=0;exitDy=0;entryX=1;entryY=0.25;entryDx=0;entryDy=0;fontSize=15;" edge="1" parent="1" source="GixAwiqqqnvxr2OSCkwx-36" target="WjA-gEvJJwSOxTceD3pm-177">
          <mxGeometry relative="1" as="geometry" />
        </mxCell>
        <mxCell id="WjA-gEvJJwSOxTceD3pm-98" value="用户信息" style="edgeLabel;html=1;align=center;verticalAlign=middle;resizable=0;points=[];fontSize=15;" vertex="1" connectable="0" parent="WjA-gEvJJwSOxTceD3pm-96">
          <mxGeometry x="-0.2283" y="-2" relative="1" as="geometry">
            <mxPoint as="offset" />
          </mxGeometry>
        </mxCell>
        <mxCell id="WjA-gEvJJwSOxTceD3pm-103" style="edgeStyle=orthogonalEdgeStyle;rounded=0;orthogonalLoop=1;jettySize=auto;html=1;exitX=1;exitY=0.25;exitDx=0;exitDy=0;entryX=0.42;entryY=1.037;entryDx=0;entryDy=0;entryPerimeter=0;fontSize=15;" edge="1" parent="1" source="WjA-gEvJJwSOxTceD3pm-55" target="WjA-gEvJJwSOxTceD3pm-29">
          <mxGeometry relative="1" as="geometry" />
        </mxCell>
        <mxCell id="WjA-gEvJJwSOxTceD3pm-104" value="会员信息" style="edgeLabel;html=1;align=center;verticalAlign=middle;resizable=0;points=[];fontSize=15;" vertex="1" connectable="0" parent="WjA-gEvJJwSOxTceD3pm-103">
          <mxGeometry x="-0.2965" y="-1" relative="1" as="geometry">
            <mxPoint as="offset" />
          </mxGeometry>
        </mxCell>
        <mxCell id="WjA-gEvJJwSOxTceD3pm-124" style="edgeStyle=orthogonalEdgeStyle;rounded=0;orthogonalLoop=1;jettySize=auto;html=1;exitX=0.5;exitY=1;exitDx=0;exitDy=0;entryX=0;entryY=0.25;entryDx=0;entryDy=0;fontSize=15;" edge="1" parent="1" source="WjA-gEvJJwSOxTceD3pm-106" target="WjA-gEvJJwSOxTceD3pm-123">
          <mxGeometry relative="1" as="geometry">
            <Array as="points">
              <mxPoint x="990" y="1425" />
              <mxPoint x="990" y="1535" />
            </Array>
          </mxGeometry>
        </mxCell>
        <mxCell id="WjA-gEvJJwSOxTceD3pm-130" value="用户信息" style="edgeLabel;html=1;align=center;verticalAlign=middle;resizable=0;points=[];fontSize=15;" vertex="1" connectable="0" parent="WjA-gEvJJwSOxTceD3pm-124">
          <mxGeometry x="0.119" y="-1" relative="1" as="geometry">
            <mxPoint as="offset" />
          </mxGeometry>
        </mxCell>
        <mxCell id="WjA-gEvJJwSOxTceD3pm-106" value="用户" style="rounded=0;whiteSpace=wrap;html=1;fontSize=15;" vertex="1" parent="1">
          <mxGeometry x="930" y="1355" width="80" height="70" as="geometry" />
        </mxCell>
        <mxCell id="WjA-gEvJJwSOxTceD3pm-116" style="edgeStyle=orthogonalEdgeStyle;rounded=0;orthogonalLoop=1;jettySize=auto;html=1;exitX=0.75;exitY=0;exitDx=0;exitDy=0;entryX=0.25;entryY=1;entryDx=0;entryDy=0;fontSize=15;" edge="1" parent="1" source="WjA-gEvJJwSOxTceD3pm-108" target="WjA-gEvJJwSOxTceD3pm-114">
          <mxGeometry relative="1" as="geometry" />
        </mxCell>
        <mxCell id="WjA-gEvJJwSOxTceD3pm-119" value="用户注册信息" style="edgeLabel;html=1;align=center;verticalAlign=middle;resizable=0;points=[];fontSize=15;" vertex="1" connectable="0" parent="WjA-gEvJJwSOxTceD3pm-116">
          <mxGeometry x="0.0597" y="1" relative="1" as="geometry">
            <mxPoint as="offset" />
          </mxGeometry>
        </mxCell>
        <mxCell id="WjA-gEvJJwSOxTceD3pm-108" value="1.1&amp;nbsp; 用户注册" style="rounded=1;whiteSpace=wrap;html=1;fontSize=15;" vertex="1" parent="1">
          <mxGeometry x="1280" y="1340" width="140" height="100" as="geometry" />
        </mxCell>
        <mxCell id="WjA-gEvJJwSOxTceD3pm-109" style="edgeStyle=orthogonalEdgeStyle;rounded=0;orthogonalLoop=1;jettySize=auto;html=1;exitX=1.048;exitY=0.362;exitDx=0;exitDy=0;entryX=0;entryY=0.4;entryDx=0;entryDy=0;entryPerimeter=0;fontSize=15;exitPerimeter=0;" edge="1" parent="1" source="WjA-gEvJJwSOxTceD3pm-106" target="WjA-gEvJJwSOxTceD3pm-108">
          <mxGeometry relative="1" as="geometry">
            <mxPoint x="1190" y="1380" as="sourcePoint" />
            <mxPoint x="1272" y="1380" as="targetPoint" />
          </mxGeometry>
        </mxCell>
        <mxCell id="WjA-gEvJJwSOxTceD3pm-110" value="用户注册" style="edgeLabel;html=1;align=center;verticalAlign=middle;resizable=0;points=[];fontSize=15;" vertex="1" connectable="0" parent="WjA-gEvJJwSOxTceD3pm-109">
          <mxGeometry x="0.0245" y="4" relative="1" as="geometry">
            <mxPoint x="-7" y="13" as="offset" />
          </mxGeometry>
        </mxCell>
        <mxCell id="WjA-gEvJJwSOxTceD3pm-112" value="" style="edgeStyle=orthogonalEdgeStyle;rounded=0;orthogonalLoop=1;jettySize=auto;html=1;fontSize=15;" edge="1" parent="1" source="WjA-gEvJJwSOxTceD3pm-111" target="WjA-gEvJJwSOxTceD3pm-108">
          <mxGeometry relative="1" as="geometry" />
        </mxCell>
        <mxCell id="WjA-gEvJJwSOxTceD3pm-113" value="教练注册信息" style="edgeLabel;html=1;align=center;verticalAlign=middle;resizable=0;points=[];fontSize=15;" vertex="1" connectable="0" parent="WjA-gEvJJwSOxTceD3pm-112">
          <mxGeometry x="-0.0789" relative="1" as="geometry">
            <mxPoint as="offset" />
          </mxGeometry>
        </mxCell>
        <mxCell id="WjA-gEvJJwSOxTceD3pm-111" value="教练" style="rounded=0;whiteSpace=wrap;html=1;fontSize=15;" vertex="1" parent="1">
          <mxGeometry x="1550" y="1355" width="80" height="70" as="geometry" />
        </mxCell>
        <mxCell id="WjA-gEvJJwSOxTceD3pm-126" style="edgeStyle=orthogonalEdgeStyle;rounded=0;orthogonalLoop=1;jettySize=auto;html=1;exitX=1;exitY=0.75;exitDx=0;exitDy=0;entryX=1;entryY=0.5;entryDx=0;entryDy=0;fontSize=15;" edge="1" parent="1" source="WjA-gEvJJwSOxTceD3pm-114" target="WjA-gEvJJwSOxTceD3pm-123">
          <mxGeometry relative="1" as="geometry">
            <Array as="points">
              <mxPoint x="1710" y="1238" />
              <mxPoint x="1710" y="1560" />
            </Array>
          </mxGeometry>
        </mxCell>
        <mxCell id="WjA-gEvJJwSOxTceD3pm-127" value="用户信息" style="edgeLabel;html=1;align=center;verticalAlign=middle;resizable=0;points=[];fontSize=15;" vertex="1" connectable="0" parent="WjA-gEvJJwSOxTceD3pm-126">
          <mxGeometry x="-0.3425" y="-4" relative="1" as="geometry">
            <mxPoint as="offset" />
          </mxGeometry>
        </mxCell>
        <mxCell id="WjA-gEvJJwSOxTceD3pm-159" value="" style="edgeStyle=orthogonalEdgeStyle;rounded=0;orthogonalLoop=1;jettySize=auto;html=1;fontSize=15;" edge="1" parent="1" source="WjA-gEvJJwSOxTceD3pm-114" target="WjA-gEvJJwSOxTceD3pm-156">
          <mxGeometry relative="1" as="geometry" />
        </mxCell>
        <mxCell id="WjA-gEvJJwSOxTceD3pm-160" value="&lt;font&gt;用户信息&lt;/font&gt;" style="edgeLabel;html=1;align=center;verticalAlign=middle;resizable=0;points=[];fontSize=15;" vertex="1" connectable="0" parent="WjA-gEvJJwSOxTceD3pm-159">
          <mxGeometry x="-0.0009" y="1" relative="1" as="geometry">
            <mxPoint as="offset" />
          </mxGeometry>
        </mxCell>
        <mxCell id="WjA-gEvJJwSOxTceD3pm-114" value="用户文档" style="html=1;dashed=0;whiteSpace=wrap;shape=partialRectangle;right=0;left=0;fontSize=15;" vertex="1" parent="1">
          <mxGeometry x="1520" y="1170" width="100" height="90" as="geometry" />
        </mxCell>
        <mxCell id="WjA-gEvJJwSOxTceD3pm-115" value="区块链" style="html=1;dashed=0;whiteSpace=wrap;shape=partialRectangle;right=0;left=0;fontSize=15;" vertex="1" parent="1">
          <mxGeometry x="1140" y="1170" width="100" height="90" as="geometry" />
        </mxCell>
        <mxCell id="WjA-gEvJJwSOxTceD3pm-117" style="edgeStyle=orthogonalEdgeStyle;rounded=0;orthogonalLoop=1;jettySize=auto;html=1;exitDx=0;exitDy=0;entryDx=0;entryDy=0;entryPerimeter=0;fontSize=15;" edge="1" parent="1" source="WjA-gEvJJwSOxTceD3pm-108" target="WjA-gEvJJwSOxTceD3pm-115">
          <mxGeometry relative="1" as="geometry">
            <Array as="points">
              <mxPoint x="1360" y="1300" />
              <mxPoint x="1190" y="1300" />
            </Array>
          </mxGeometry>
        </mxCell>
        <mxCell id="WjA-gEvJJwSOxTceD3pm-118" value="用户注册信息" style="edgeLabel;html=1;align=center;verticalAlign=middle;resizable=0;points=[];fontSize=15;" vertex="1" connectable="0" parent="WjA-gEvJJwSOxTceD3pm-117">
          <mxGeometry x="0.1849" y="-4" relative="1" as="geometry">
            <mxPoint x="1" as="offset" />
          </mxGeometry>
        </mxCell>
        <mxCell id="WjA-gEvJJwSOxTceD3pm-120" style="edgeStyle=orthogonalEdgeStyle;rounded=0;orthogonalLoop=1;jettySize=auto;html=1;exitX=0.75;exitY=1;exitDx=0;exitDy=0;entryX=0.88;entryY=-0.027;entryDx=0;entryDy=0;entryPerimeter=0;fontSize=15;" edge="1" parent="1" source="WjA-gEvJJwSOxTceD3pm-114" target="WjA-gEvJJwSOxTceD3pm-108">
          <mxGeometry relative="1" as="geometry">
            <Array as="points">
              <mxPoint x="1595" y="1320" />
              <mxPoint x="1403" y="1320" />
            </Array>
          </mxGeometry>
        </mxCell>
        <mxCell id="WjA-gEvJJwSOxTceD3pm-121" value="用户信息" style="edgeLabel;html=1;align=center;verticalAlign=middle;resizable=0;points=[];fontSize=15;" vertex="1" connectable="0" parent="WjA-gEvJJwSOxTceD3pm-120">
          <mxGeometry x="-0.0813" y="2" relative="1" as="geometry">
            <mxPoint as="offset" />
          </mxGeometry>
        </mxCell>
        <mxCell id="WjA-gEvJJwSOxTceD3pm-132" style="edgeStyle=orthogonalEdgeStyle;rounded=0;orthogonalLoop=1;jettySize=auto;html=1;exitX=0.75;exitY=0;exitDx=0;exitDy=0;entryX=0.75;entryY=1;entryDx=0;entryDy=0;fontSize=15;" edge="1" parent="1" source="WjA-gEvJJwSOxTceD3pm-123" target="WjA-gEvJJwSOxTceD3pm-111">
          <mxGeometry relative="1" as="geometry">
            <Array as="points">
              <mxPoint x="1385" y="1490" />
              <mxPoint x="1610" y="1490" />
            </Array>
          </mxGeometry>
        </mxCell>
        <mxCell id="WjA-gEvJJwSOxTceD3pm-133" value="登录结果" style="edgeLabel;html=1;align=center;verticalAlign=middle;resizable=0;points=[];fontSize=15;" vertex="1" connectable="0" parent="WjA-gEvJJwSOxTceD3pm-132">
          <mxGeometry x="-0.1051" y="2" relative="1" as="geometry">
            <mxPoint as="offset" />
          </mxGeometry>
        </mxCell>
        <mxCell id="WjA-gEvJJwSOxTceD3pm-123" value="1.2&amp;nbsp; 用户登录" style="rounded=1;whiteSpace=wrap;html=1;fontSize=15;" vertex="1" parent="1">
          <mxGeometry x="1280" y="1510" width="140" height="100" as="geometry" />
        </mxCell>
        <mxCell id="WjA-gEvJJwSOxTceD3pm-125" style="edgeStyle=orthogonalEdgeStyle;rounded=0;orthogonalLoop=1;jettySize=auto;html=1;exitX=0.5;exitY=1;exitDx=0;exitDy=0;entryX=0.25;entryY=0;entryDx=0;entryDy=0;fontSize=15;" edge="1" parent="1" source="WjA-gEvJJwSOxTceD3pm-111" target="WjA-gEvJJwSOxTceD3pm-123">
          <mxGeometry relative="1" as="geometry" />
        </mxCell>
        <mxCell id="WjA-gEvJJwSOxTceD3pm-129" value="教练信息" style="edgeLabel;html=1;align=center;verticalAlign=middle;resizable=0;points=[];fontSize=15;" vertex="1" connectable="0" parent="WjA-gEvJJwSOxTceD3pm-125">
          <mxGeometry x="0.114" y="-3" relative="1" as="geometry">
            <mxPoint x="1" as="offset" />
          </mxGeometry>
        </mxCell>
        <mxCell id="WjA-gEvJJwSOxTceD3pm-128" style="edgeStyle=orthogonalEdgeStyle;rounded=0;orthogonalLoop=1;jettySize=auto;html=1;exitX=0;exitY=0.75;exitDx=0;exitDy=0;entryX=0.35;entryY=0.971;entryDx=0;entryDy=0;entryPerimeter=0;fontSize=15;" edge="1" parent="1" source="WjA-gEvJJwSOxTceD3pm-123" target="WjA-gEvJJwSOxTceD3pm-106">
          <mxGeometry relative="1" as="geometry" />
        </mxCell>
        <mxCell id="WjA-gEvJJwSOxTceD3pm-131" value="登录结果" style="edgeLabel;html=1;align=center;verticalAlign=middle;resizable=0;points=[];fontSize=15;" vertex="1" connectable="0" parent="WjA-gEvJJwSOxTceD3pm-128">
          <mxGeometry x="-0.1653" y="3" relative="1" as="geometry">
            <mxPoint as="offset" />
          </mxGeometry>
        </mxCell>
        <mxCell id="WjA-gEvJJwSOxTceD3pm-136" style="edgeStyle=orthogonalEdgeStyle;rounded=0;orthogonalLoop=1;jettySize=auto;html=1;exitX=0;exitY=0.75;exitDx=0;exitDy=0;entryX=1.012;entryY=0.867;entryDx=0;entryDy=0;entryPerimeter=0;" edge="1" parent="1" source="WjA-gEvJJwSOxTceD3pm-3" target="WjA-gEvJJwSOxTceD3pm-1">
          <mxGeometry relative="1" as="geometry" />
        </mxCell>
        <mxCell id="WjA-gEvJJwSOxTceD3pm-137" value="&lt;font style=&quot;font-size: 14px;&quot;&gt;登录结果&lt;/font&gt;" style="edgeLabel;html=1;align=center;verticalAlign=middle;resizable=0;points=[];" vertex="1" connectable="0" parent="WjA-gEvJJwSOxTceD3pm-136">
          <mxGeometry x="-0.1396" y="1" relative="1" as="geometry">
            <mxPoint as="offset" />
          </mxGeometry>
        </mxCell>
        <mxCell id="WjA-gEvJJwSOxTceD3pm-166" style="edgeStyle=orthogonalEdgeStyle;rounded=0;orthogonalLoop=1;jettySize=auto;html=1;exitDx=0;exitDy=0;exitX=0;exitY=0.25;fontSize=15;" edge="1" parent="1" source="WjA-gEvJJwSOxTceD3pm-138">
          <mxGeometry relative="1" as="geometry">
            <mxPoint x="2492" y="1609" as="sourcePoint" />
            <mxPoint x="2362" y="1609" as="targetPoint" />
          </mxGeometry>
        </mxCell>
        <mxCell id="WjA-gEvJJwSOxTceD3pm-167" value="存储会员信息" style="edgeLabel;html=1;align=center;verticalAlign=middle;resizable=0;points=[];fontSize=15;" vertex="1" connectable="0" parent="WjA-gEvJJwSOxTceD3pm-166">
          <mxGeometry x="-0.0445" y="4" relative="1" as="geometry">
            <mxPoint as="offset" />
          </mxGeometry>
        </mxCell>
        <mxCell id="WjA-gEvJJwSOxTceD3pm-193" style="edgeStyle=orthogonalEdgeStyle;rounded=0;orthogonalLoop=1;jettySize=auto;html=1;entryX=0.5;entryY=1;entryDx=0;entryDy=0;fontSize=15;" edge="1" parent="1" source="WjA-gEvJJwSOxTceD3pm-138" target="WjA-gEvJJwSOxTceD3pm-140">
          <mxGeometry relative="1" as="geometry" />
        </mxCell>
        <mxCell id="WjA-gEvJJwSOxTceD3pm-194" value="会员信息" style="edgeLabel;html=1;align=center;verticalAlign=middle;resizable=0;points=[];fontSize=15;" vertex="1" connectable="0" parent="WjA-gEvJJwSOxTceD3pm-193">
          <mxGeometry x="-0.32" y="1" relative="1" as="geometry">
            <mxPoint as="offset" />
          </mxGeometry>
        </mxCell>
        <mxCell id="WjA-gEvJJwSOxTceD3pm-138" value="2.1 预定会员" style="rounded=1;whiteSpace=wrap;html=1;fontSize=15;" vertex="1" parent="1">
          <mxGeometry x="2500" y="1585" width="140" height="100" as="geometry" />
        </mxCell>
        <mxCell id="WjA-gEvJJwSOxTceD3pm-161" style="edgeStyle=orthogonalEdgeStyle;rounded=0;orthogonalLoop=1;jettySize=auto;html=1;entryX=0.25;entryY=0;entryDx=0;entryDy=0;fontSize=15;" edge="1" parent="1">
          <mxGeometry relative="1" as="geometry">
            <mxPoint x="2599" y="1585" as="targetPoint" />
            <mxPoint x="2599" y="1400" as="sourcePoint" />
            <Array as="points">
              <mxPoint x="2599" y="1540" />
              <mxPoint x="2599" y="1540" />
            </Array>
          </mxGeometry>
        </mxCell>
        <mxCell id="WjA-gEvJJwSOxTceD3pm-164" value="预定课程" style="edgeLabel;html=1;align=center;verticalAlign=middle;resizable=0;points=[];fontSize=15;" vertex="1" connectable="0" parent="WjA-gEvJJwSOxTceD3pm-161">
          <mxGeometry x="-0.5104" y="3" relative="1" as="geometry">
            <mxPoint x="-8" y="-6" as="offset" />
          </mxGeometry>
        </mxCell>
        <mxCell id="WjA-gEvJJwSOxTceD3pm-140" value="用户" style="rounded=0;whiteSpace=wrap;html=1;fontSize=15;" vertex="1" parent="1">
          <mxGeometry x="2515" y="1330" width="110" height="70" as="geometry" />
        </mxCell>
        <mxCell id="WjA-gEvJJwSOxTceD3pm-184" value="" style="edgeStyle=orthogonalEdgeStyle;rounded=0;orthogonalLoop=1;jettySize=auto;html=1;exitX=1.03;exitY=0.271;exitDx=0;exitDy=0;exitPerimeter=0;fontSize=15;" edge="1" parent="1" source="WjA-gEvJJwSOxTceD3pm-141">
          <mxGeometry relative="1" as="geometry">
            <mxPoint x="2160" y="1444" as="sourcePoint" />
            <mxPoint x="2240" y="1444" as="targetPoint" />
          </mxGeometry>
        </mxCell>
        <mxCell id="WjA-gEvJJwSOxTceD3pm-185" value="查看相关会员" style="edgeLabel;html=1;align=center;verticalAlign=middle;resizable=0;points=[];fontSize=15;" vertex="1" connectable="0" parent="WjA-gEvJJwSOxTceD3pm-184">
          <mxGeometry x="-0.0971" relative="1" as="geometry">
            <mxPoint x="3" y="-19" as="offset" />
          </mxGeometry>
        </mxCell>
        <mxCell id="WjA-gEvJJwSOxTceD3pm-195" style="edgeStyle=orthogonalEdgeStyle;rounded=0;orthogonalLoop=1;jettySize=auto;html=1;exitX=0.75;exitY=1;exitDx=0;exitDy=0;fontSize=15;" edge="1" parent="1" source="WjA-gEvJJwSOxTceD3pm-141">
          <mxGeometry relative="1" as="geometry">
            <mxPoint x="2120" y="1740" as="targetPoint" />
          </mxGeometry>
        </mxCell>
        <mxCell id="WjA-gEvJJwSOxTceD3pm-198" value="提取收益" style="edgeLabel;html=1;align=center;verticalAlign=middle;resizable=0;points=[];fontSize=15;" vertex="1" connectable="0" parent="WjA-gEvJJwSOxTceD3pm-195">
          <mxGeometry x="0.0876" y="-1" relative="1" as="geometry">
            <mxPoint as="offset" />
          </mxGeometry>
        </mxCell>
        <mxCell id="WjA-gEvJJwSOxTceD3pm-141" value="教练" style="rounded=0;whiteSpace=wrap;html=1;fontSize=15;" vertex="1" parent="1">
          <mxGeometry x="2060" y="1425" width="80" height="70" as="geometry" />
        </mxCell>
        <mxCell id="WjA-gEvJJwSOxTceD3pm-170" style="edgeStyle=orthogonalEdgeStyle;rounded=0;orthogonalLoop=1;jettySize=auto;html=1;entryDx=0;entryDy=0;fontSize=15;" edge="1" parent="1" source="WjA-gEvJJwSOxTceD3pm-145" target="WjA-gEvJJwSOxTceD3pm-140">
          <mxGeometry relative="1" as="geometry">
            <Array as="points">
              <mxPoint x="2448" y="1480" />
              <mxPoint x="2448" y="1390" />
              <mxPoint x="2515" y="1390" />
            </Array>
          </mxGeometry>
        </mxCell>
        <mxCell id="WjA-gEvJJwSOxTceD3pm-171" value="课程规划" style="edgeLabel;html=1;align=center;verticalAlign=middle;resizable=0;points=[];fontSize=15;" vertex="1" connectable="0" parent="WjA-gEvJJwSOxTceD3pm-170">
          <mxGeometry x="0.1275" y="1" relative="1" as="geometry">
            <mxPoint y="39" as="offset" />
          </mxGeometry>
        </mxCell>
        <mxCell id="WjA-gEvJJwSOxTceD3pm-187" value="" style="edgeStyle=orthogonalEdgeStyle;rounded=0;orthogonalLoop=1;jettySize=auto;html=1;fontSize=15;" edge="1" parent="1">
          <mxGeometry relative="1" as="geometry">
            <mxPoint x="2240" y="1471" as="sourcePoint" />
            <mxPoint x="2140" y="1471" as="targetPoint" />
          </mxGeometry>
        </mxCell>
        <mxCell id="WjA-gEvJJwSOxTceD3pm-188" value="课程信息" style="edgeLabel;html=1;align=center;verticalAlign=middle;resizable=0;points=[];fontSize=15;" vertex="1" connectable="0" parent="WjA-gEvJJwSOxTceD3pm-187">
          <mxGeometry x="0.2733" y="-3" relative="1" as="geometry">
            <mxPoint x="13" y="22" as="offset" />
          </mxGeometry>
        </mxCell>
        <mxCell id="WjA-gEvJJwSOxTceD3pm-145" value="2.3 查看课程规划" style="rounded=1;whiteSpace=wrap;html=1;fontSize=15;" vertex="1" parent="1">
          <mxGeometry x="2240" y="1410" width="140" height="100" as="geometry" />
        </mxCell>
        <mxCell id="WjA-gEvJJwSOxTceD3pm-199" style="edgeStyle=orthogonalEdgeStyle;rounded=0;orthogonalLoop=1;jettySize=auto;html=1;entryX=0;entryY=0.5;entryDx=0;entryDy=0;fontSize=15;" edge="1" parent="1" source="WjA-gEvJJwSOxTceD3pm-146" target="WjA-gEvJJwSOxTceD3pm-148">
          <mxGeometry relative="1" as="geometry" />
        </mxCell>
        <mxCell id="WjA-gEvJJwSOxTceD3pm-202" value="修改会员信息" style="edgeLabel;html=1;align=center;verticalAlign=middle;resizable=0;points=[];fontSize=15;" vertex="1" connectable="0" parent="WjA-gEvJJwSOxTceD3pm-199">
          <mxGeometry x="-0.0522" y="-1" relative="1" as="geometry">
            <mxPoint as="offset" />
          </mxGeometry>
        </mxCell>
        <mxCell id="WjA-gEvJJwSOxTceD3pm-200" style="edgeStyle=orthogonalEdgeStyle;rounded=0;orthogonalLoop=1;jettySize=auto;html=1;exitX=1;exitY=0.25;exitDx=0;exitDy=0;entryX=0.5;entryY=1;entryDx=0;entryDy=0;fontSize=15;" edge="1" parent="1" source="WjA-gEvJJwSOxTceD3pm-146" target="WjA-gEvJJwSOxTceD3pm-149">
          <mxGeometry relative="1" as="geometry" />
        </mxCell>
        <mxCell id="WjA-gEvJJwSOxTceD3pm-201" value="修改会员信息" style="edgeLabel;html=1;align=center;verticalAlign=middle;resizable=0;points=[];fontSize=15;" vertex="1" connectable="0" parent="WjA-gEvJJwSOxTceD3pm-200">
          <mxGeometry x="-0.5211" relative="1" as="geometry">
            <mxPoint as="offset" />
          </mxGeometry>
        </mxCell>
        <mxCell id="WjA-gEvJJwSOxTceD3pm-146" value="2.3 提取收益" style="rounded=1;whiteSpace=wrap;html=1;fontSize=15;" vertex="1" parent="1">
          <mxGeometry x="2070" y="1745" width="140" height="100" as="geometry" />
        </mxCell>
        <mxCell id="WjA-gEvJJwSOxTceD3pm-196" style="edgeStyle=orthogonalEdgeStyle;rounded=0;orthogonalLoop=1;jettySize=auto;html=1;exitX=0.5;exitY=1;exitDx=0;exitDy=0;entryX=0;entryY=0.5;entryDx=0;entryDy=0;fontSize=15;" edge="1" parent="1" source="WjA-gEvJJwSOxTceD3pm-147" target="WjA-gEvJJwSOxTceD3pm-146">
          <mxGeometry relative="1" as="geometry" />
        </mxCell>
        <mxCell id="WjA-gEvJJwSOxTceD3pm-197" value="提取收益" style="edgeLabel;html=1;align=center;verticalAlign=middle;resizable=0;points=[];fontSize=15;" vertex="1" connectable="0" parent="WjA-gEvJJwSOxTceD3pm-196">
          <mxGeometry x="-0.4316" relative="1" as="geometry">
            <mxPoint as="offset" />
          </mxGeometry>
        </mxCell>
        <mxCell id="WjA-gEvJJwSOxTceD3pm-147" value="管理员" style="rounded=0;whiteSpace=wrap;html=1;fontSize=15;" vertex="1" parent="1">
          <mxGeometry x="1950" y="1425" width="80" height="70" as="geometry" />
        </mxCell>
        <mxCell id="WjA-gEvJJwSOxTceD3pm-192" style="edgeStyle=orthogonalEdgeStyle;rounded=0;orthogonalLoop=1;jettySize=auto;html=1;exitDx=0;exitDy=0;entryDx=0;entryDy=0;entryPerimeter=0;fontSize=15;" edge="1" parent="1">
          <mxGeometry relative="1" as="geometry">
            <mxPoint x="2588" y="1685" as="targetPoint" />
            <mxPoint x="2588" y="1750" as="sourcePoint" />
            <Array as="points">
              <mxPoint x="2588" y="1730" />
              <mxPoint x="2588" y="1730" />
            </Array>
          </mxGeometry>
        </mxCell>
        <mxCell id="WjA-gEvJJwSOxTceD3pm-148" value="区块链" style="html=1;dashed=0;whiteSpace=wrap;shape=partialRectangle;right=0;left=0;fontSize=15;" vertex="1" parent="1">
          <mxGeometry x="2510" y="1750" width="100" height="90" as="geometry" />
        </mxCell>
        <mxCell id="WjA-gEvJJwSOxTceD3pm-169" value="" style="edgeStyle=orthogonalEdgeStyle;rounded=0;orthogonalLoop=1;jettySize=auto;html=1;fontSize=15;" edge="1" parent="1" source="WjA-gEvJJwSOxTceD3pm-149" target="WjA-gEvJJwSOxTceD3pm-145">
          <mxGeometry relative="1" as="geometry" />
        </mxCell>
        <mxCell id="WjA-gEvJJwSOxTceD3pm-172" value="课程规划信息" style="edgeLabel;html=1;align=center;verticalAlign=middle;resizable=0;points=[];fontSize=15;" vertex="1" connectable="0" parent="WjA-gEvJJwSOxTceD3pm-169">
          <mxGeometry x="-0.1542" y="2" relative="1" as="geometry">
            <mxPoint as="offset" />
          </mxGeometry>
        </mxCell>
        <mxCell id="WjA-gEvJJwSOxTceD3pm-149" value="会员文档" style="html=1;dashed=0;whiteSpace=wrap;shape=partialRectangle;right=0;left=0;fontSize=15;" vertex="1" parent="1">
          <mxGeometry x="2260" y="1590" width="100" height="90" as="geometry" />
        </mxCell>
        <mxCell id="WjA-gEvJJwSOxTceD3pm-151" style="edgeStyle=orthogonalEdgeStyle;rounded=0;orthogonalLoop=1;jettySize=auto;html=1;exitX=0;exitY=0.5;exitDx=0;exitDy=0;entryX=0.996;entryY=0.888;entryDx=0;entryDy=0;entryPerimeter=0;" edge="1" parent="1" source="WjA-gEvJJwSOxTceD3pm-53" target="WjA-gEvJJwSOxTceD3pm-29">
          <mxGeometry relative="1" as="geometry" />
        </mxCell>
        <mxCell id="WjA-gEvJJwSOxTceD3pm-153" value="提取收益" style="edgeLabel;html=1;align=center;verticalAlign=middle;resizable=0;points=[];fontSize=15;" vertex="1" connectable="0" parent="WjA-gEvJJwSOxTceD3pm-151">
          <mxGeometry x="-0.4891" y="-3" relative="1" as="geometry">
            <mxPoint x="-1" y="1" as="offset" />
          </mxGeometry>
        </mxCell>
        <mxCell id="WjA-gEvJJwSOxTceD3pm-175" value="" style="edgeStyle=orthogonalEdgeStyle;rounded=0;orthogonalLoop=1;jettySize=auto;html=1;fontSize=15;" edge="1" parent="1" source="WjA-gEvJJwSOxTceD3pm-154" target="WjA-gEvJJwSOxTceD3pm-145">
          <mxGeometry relative="1" as="geometry" />
        </mxCell>
        <mxCell id="WjA-gEvJJwSOxTceD3pm-176" value="课程信息" style="edgeLabel;html=1;align=center;verticalAlign=middle;resizable=0;points=[];fontSize=15;" vertex="1" connectable="0" parent="WjA-gEvJJwSOxTceD3pm-175">
          <mxGeometry x="-0.0957" y="-2" relative="1" as="geometry">
            <mxPoint as="offset" />
          </mxGeometry>
        </mxCell>
        <mxCell id="WjA-gEvJJwSOxTceD3pm-154" value="课程文档" style="html=1;dashed=0;whiteSpace=wrap;shape=partialRectangle;right=0;left=0;fontSize=15;" vertex="1" parent="1">
          <mxGeometry x="2260" y="1205" width="100" height="90" as="geometry" />
        </mxCell>
        <mxCell id="WjA-gEvJJwSOxTceD3pm-156" value="管理员" style="rounded=0;whiteSpace=wrap;html=1;fontSize=15;" vertex="1" parent="1">
          <mxGeometry x="1340" y="1180" width="80" height="70" as="geometry" />
        </mxCell>
        <mxCell id="WjA-gEvJJwSOxTceD3pm-165" style="edgeStyle=orthogonalEdgeStyle;rounded=0;orthogonalLoop=1;jettySize=auto;html=1;exitDx=0;exitDy=0;entryDx=0;entryDy=0;entryPerimeter=0;fontSize=15;" edge="1" parent="1">
          <mxGeometry relative="1" as="geometry">
            <mxPoint x="2532" y="1685" as="sourcePoint" />
            <mxPoint x="2532" y="1750" as="targetPoint" />
          </mxGeometry>
        </mxCell>
        <mxCell id="WjA-gEvJJwSOxTceD3pm-191" value="存储会员信息" style="edgeLabel;html=1;align=center;verticalAlign=middle;resizable=0;points=[];fontSize=15;" vertex="1" connectable="0" parent="WjA-gEvJJwSOxTceD3pm-165">
          <mxGeometry x="-0.2462" y="-2" relative="1" as="geometry">
            <mxPoint as="offset" />
          </mxGeometry>
        </mxCell>
        <mxCell id="WjA-gEvJJwSOxTceD3pm-173" style="edgeStyle=orthogonalEdgeStyle;rounded=0;orthogonalLoop=1;jettySize=auto;html=1;exitX=0;exitY=0.5;exitDx=0;exitDy=0;entryX=0.998;entryY=0.353;entryDx=0;entryDy=0;entryPerimeter=0;fontSize=15;" edge="1" parent="1" source="WjA-gEvJJwSOxTceD3pm-140" target="WjA-gEvJJwSOxTceD3pm-145">
          <mxGeometry relative="1" as="geometry">
            <Array as="points">
              <mxPoint x="2420" y="1365" />
              <mxPoint x="2420" y="1445" />
            </Array>
          </mxGeometry>
        </mxCell>
        <mxCell id="WjA-gEvJJwSOxTceD3pm-174" value="课程信息" style="edgeLabel;html=1;align=center;verticalAlign=middle;resizable=0;points=[];fontSize=15;" vertex="1" connectable="0" parent="WjA-gEvJJwSOxTceD3pm-173">
          <mxGeometry x="-0.4558" relative="1" as="geometry">
            <mxPoint as="offset" />
          </mxGeometry>
        </mxCell>
        <mxCell id="WjA-gEvJJwSOxTceD3pm-178" value="" style="edgeStyle=orthogonalEdgeStyle;rounded=0;orthogonalLoop=1;jettySize=auto;html=1;exitDx=0;exitDy=0;entryDx=0;entryDy=0;entryPerimeter=0;fontSize=15;" edge="1" parent="1">
          <mxGeometry relative="1" as="geometry">
            <mxPoint x="3329.8599999999997" y="725" as="sourcePoint" />
            <mxPoint x="3329.8599999999997" y="795" as="targetPoint" />
          </mxGeometry>
        </mxCell>
        <mxCell id="WjA-gEvJJwSOxTceD3pm-182" value="修改信息" style="edgeLabel;html=1;align=center;verticalAlign=middle;resizable=0;points=[];fontSize=15;" vertex="1" connectable="0" parent="WjA-gEvJJwSOxTceD3pm-178">
          <mxGeometry x="-0.3952" relative="1" as="geometry">
            <mxPoint x="-20" as="offset" />
          </mxGeometry>
        </mxCell>
        <mxCell id="WjA-gEvJJwSOxTceD3pm-179" value="" style="edgeStyle=orthogonalEdgeStyle;rounded=0;orthogonalLoop=1;jettySize=auto;html=1;exitDx=0;exitDy=0;entryDx=0;entryDy=0;entryPerimeter=0;exitPerimeter=0;fontSize=15;entryX=-0.009;entryY=0.296;exitX=1.036;exitY=0.662;" edge="1" parent="1">
          <mxGeometry relative="1" as="geometry">
            <mxPoint x="3143.46" y="844.5799999999999" as="sourcePoint" />
            <mxPoint x="3278.5999999999995" y="844.5999999999999" as="targetPoint" />
          </mxGeometry>
        </mxCell>
        <mxCell id="WjA-gEvJJwSOxTceD3pm-181" value="课程信息" style="edgeLabel;html=1;align=center;verticalAlign=middle;resizable=0;points=[];fontSize=15;" vertex="1" connectable="0" parent="WjA-gEvJJwSOxTceD3pm-179">
          <mxGeometry x="0.0394" y="-2" relative="1" as="geometry">
            <mxPoint as="offset" />
          </mxGeometry>
        </mxCell>
        <mxCell id="WjA-gEvJJwSOxTceD3pm-177" value="4. 课程管理" style="rounded=1;whiteSpace=wrap;html=1;fontSize=15;" vertex="1" parent="1">
          <mxGeometry x="3279.8599999999997" y="795" width="140" height="100" as="geometry" />
        </mxCell>
        <mxCell id="WjA-gEvJJwSOxTceD3pm-189" style="edgeStyle=orthogonalEdgeStyle;rounded=0;orthogonalLoop=1;jettySize=auto;html=1;exitDx=0;exitDy=0;entryDx=0;entryDy=0;entryPerimeter=0;fontSize=15;" edge="1" parent="1" source="WjA-gEvJJwSOxTceD3pm-145" target="WjA-gEvJJwSOxTceD3pm-140">
          <mxGeometry relative="1" as="geometry">
            <Array as="points">
              <mxPoint x="2540" y="1490" />
            </Array>
          </mxGeometry>
        </mxCell>
        <mxCell id="WjA-gEvJJwSOxTceD3pm-190" value="会员信息" style="edgeLabel;html=1;align=center;verticalAlign=middle;resizable=0;points=[];fontSize=15;" vertex="1" connectable="0" parent="WjA-gEvJJwSOxTceD3pm-189">
          <mxGeometry x="-0.146" y="-1" relative="1" as="geometry">
            <mxPoint as="offset" />
          </mxGeometry>
        </mxCell>
        <mxCell id="WjA-gEvJJwSOxTceD3pm-208" value="" style="edgeStyle=orthogonalEdgeStyle;rounded=0;orthogonalLoop=1;jettySize=auto;html=1;fontSize=15;" edge="1" parent="1" source="WjA-gEvJJwSOxTceD3pm-203" target="WjA-gEvJJwSOxTceD3pm-204">
          <mxGeometry relative="1" as="geometry" />
        </mxCell>
        <mxCell id="WjA-gEvJJwSOxTceD3pm-222" value="会员退款" style="edgeLabel;html=1;align=center;verticalAlign=middle;resizable=0;points=[];fontSize=15;" vertex="1" connectable="0" parent="WjA-gEvJJwSOxTceD3pm-208">
          <mxGeometry x="-0.2269" y="-1" relative="1" as="geometry">
            <mxPoint as="offset" />
          </mxGeometry>
        </mxCell>
        <mxCell id="WjA-gEvJJwSOxTceD3pm-209" value="" style="edgeStyle=orthogonalEdgeStyle;rounded=0;orthogonalLoop=1;jettySize=auto;html=1;fontSize=15;" edge="1" parent="1" source="WjA-gEvJJwSOxTceD3pm-203" target="WjA-gEvJJwSOxTceD3pm-207">
          <mxGeometry relative="1" as="geometry" />
        </mxCell>
        <mxCell id="WjA-gEvJJwSOxTceD3pm-221" value="转让会员" style="edgeLabel;html=1;align=center;verticalAlign=middle;resizable=0;points=[];fontSize=15;" vertex="1" connectable="0" parent="WjA-gEvJJwSOxTceD3pm-209">
          <mxGeometry x="0.0115" y="2" relative="1" as="geometry">
            <mxPoint as="offset" />
          </mxGeometry>
        </mxCell>
        <mxCell id="WjA-gEvJJwSOxTceD3pm-203" value="用户" style="rounded=0;whiteSpace=wrap;html=1;fontSize=15;" vertex="1" parent="1">
          <mxGeometry x="3309.86" y="1470" width="80" height="70" as="geometry" />
        </mxCell>
        <mxCell id="WjA-gEvJJwSOxTceD3pm-211" style="edgeStyle=orthogonalEdgeStyle;rounded=0;orthogonalLoop=1;jettySize=auto;html=1;fontSize=15;" edge="1" parent="1" source="WjA-gEvJJwSOxTceD3pm-204" target="WjA-gEvJJwSOxTceD3pm-205">
          <mxGeometry relative="1" as="geometry" />
        </mxCell>
        <mxCell id="WjA-gEvJJwSOxTceD3pm-218" value="修改会员信息" style="edgeLabel;html=1;align=center;verticalAlign=middle;resizable=0;points=[];fontSize=15;" vertex="1" connectable="0" parent="WjA-gEvJJwSOxTceD3pm-211">
          <mxGeometry x="0.4554" y="3" relative="1" as="geometry">
            <mxPoint as="offset" />
          </mxGeometry>
        </mxCell>
        <mxCell id="WjA-gEvJJwSOxTceD3pm-204" value="3.1 用户退款" style="rounded=1;whiteSpace=wrap;html=1;fontSize=15;" vertex="1" parent="1">
          <mxGeometry x="3279.86" y="1280" width="140" height="100" as="geometry" />
        </mxCell>
        <mxCell id="WjA-gEvJJwSOxTceD3pm-205" value="会员文档" style="html=1;dashed=0;whiteSpace=wrap;shape=partialRectangle;right=0;left=0;fontSize=15;" vertex="1" parent="1">
          <mxGeometry x="3520" y="1470" width="100" height="90" as="geometry" />
        </mxCell>
        <mxCell id="WjA-gEvJJwSOxTceD3pm-206" value="区块链" style="html=1;dashed=0;whiteSpace=wrap;shape=partialRectangle;right=0;left=0;fontSize=15;" vertex="1" parent="1">
          <mxGeometry x="3080" y="1460" width="100" height="90" as="geometry" />
        </mxCell>
        <mxCell id="WjA-gEvJJwSOxTceD3pm-213" style="edgeStyle=orthogonalEdgeStyle;rounded=0;orthogonalLoop=1;jettySize=auto;html=1;fontSize=15;" edge="1" parent="1" source="WjA-gEvJJwSOxTceD3pm-207">
          <mxGeometry relative="1" as="geometry">
            <mxPoint x="3570" y="1570" as="targetPoint" />
          </mxGeometry>
        </mxCell>
        <mxCell id="WjA-gEvJJwSOxTceD3pm-220" value="修改会员信息" style="edgeLabel;html=1;align=center;verticalAlign=middle;resizable=0;points=[];fontSize=15;" vertex="1" connectable="0" parent="WjA-gEvJJwSOxTceD3pm-213">
          <mxGeometry x="0.5651" y="4" relative="1" as="geometry">
            <mxPoint as="offset" />
          </mxGeometry>
        </mxCell>
        <mxCell id="WjA-gEvJJwSOxTceD3pm-207" value="3.2 用户转让" style="rounded=1;whiteSpace=wrap;html=1;fontSize=15;" vertex="1" parent="1">
          <mxGeometry x="3279.86" y="1645" width="140" height="100" as="geometry" />
        </mxCell>
        <mxCell id="WjA-gEvJJwSOxTceD3pm-210" style="edgeStyle=orthogonalEdgeStyle;rounded=0;orthogonalLoop=1;jettySize=auto;html=1;entryX=0.4;entryY=0;entryDx=0;entryDy=0;entryPerimeter=0;fontSize=15;" edge="1" parent="1" source="WjA-gEvJJwSOxTceD3pm-204" target="WjA-gEvJJwSOxTceD3pm-206">
          <mxGeometry relative="1" as="geometry" />
        </mxCell>
        <mxCell id="WjA-gEvJJwSOxTceD3pm-217" value="修改会员信息" style="edgeLabel;html=1;align=center;verticalAlign=middle;resizable=0;points=[];fontSize=15;" vertex="1" connectable="0" parent="WjA-gEvJJwSOxTceD3pm-210">
          <mxGeometry x="0.6109" y="-1" relative="1" as="geometry">
            <mxPoint as="offset" />
          </mxGeometry>
        </mxCell>
        <mxCell id="WjA-gEvJJwSOxTceD3pm-214" style="edgeStyle=orthogonalEdgeStyle;rounded=0;orthogonalLoop=1;jettySize=auto;html=1;entryX=0.422;entryY=1.013;entryDx=0;entryDy=0;entryPerimeter=0;fontSize=15;" edge="1" parent="1" source="WjA-gEvJJwSOxTceD3pm-207" target="WjA-gEvJJwSOxTceD3pm-206">
          <mxGeometry relative="1" as="geometry" />
        </mxCell>
        <mxCell id="WjA-gEvJJwSOxTceD3pm-219" value="修改会员信息" style="edgeLabel;html=1;align=center;verticalAlign=middle;resizable=0;points=[];fontSize=15;" vertex="1" connectable="0" parent="WjA-gEvJJwSOxTceD3pm-214">
          <mxGeometry x="0.4984" y="4" relative="1" as="geometry">
            <mxPoint as="offset" />
          </mxGeometry>
        </mxCell>
        <mxCell id="WjA-gEvJJwSOxTceD3pm-223" value="4.1 修改课程" style="rounded=1;whiteSpace=wrap;html=1;fontSize=15;" vertex="1" parent="1">
          <mxGeometry x="3849.9999999999995" y="795" width="140" height="100" as="geometry" />
        </mxCell>
        <mxCell id="WjA-gEvJJwSOxTceD3pm-228" style="edgeStyle=orthogonalEdgeStyle;rounded=0;orthogonalLoop=1;jettySize=auto;html=1;entryX=1;entryY=0.5;entryDx=0;entryDy=0;fontSize=15;" edge="1" parent="1" source="WjA-gEvJJwSOxTceD3pm-224" target="WjA-gEvJJwSOxTceD3pm-223">
          <mxGeometry relative="1" as="geometry">
            <Array as="points">
              <mxPoint x="4080" y="845" />
              <mxPoint x="4080" y="845" />
            </Array>
          </mxGeometry>
        </mxCell>
        <mxCell id="WjA-gEvJJwSOxTceD3pm-229" value="课程信息" style="edgeLabel;html=1;align=center;verticalAlign=middle;resizable=0;points=[];fontSize=15;" vertex="1" connectable="0" parent="WjA-gEvJJwSOxTceD3pm-228">
          <mxGeometry x="-0.1167" y="1" relative="1" as="geometry">
            <mxPoint as="offset" />
          </mxGeometry>
        </mxCell>
        <mxCell id="WjA-gEvJJwSOxTceD3pm-224" value="课程文档" style="html=1;dashed=0;whiteSpace=wrap;shape=partialRectangle;right=0;left=0;fontSize=15;" vertex="1" parent="1">
          <mxGeometry x="4110" y="795" width="100" height="90" as="geometry" />
        </mxCell>
        <mxCell id="WjA-gEvJJwSOxTceD3pm-226" value="" style="edgeStyle=orthogonalEdgeStyle;rounded=0;orthogonalLoop=1;jettySize=auto;html=1;fontSize=15;" edge="1" parent="1" source="WjA-gEvJJwSOxTceD3pm-225" target="WjA-gEvJJwSOxTceD3pm-223">
          <mxGeometry relative="1" as="geometry" />
        </mxCell>
        <mxCell id="WjA-gEvJJwSOxTceD3pm-227" value="用户信息" style="edgeLabel;html=1;align=center;verticalAlign=middle;resizable=0;points=[];fontSize=15;" vertex="1" connectable="0" parent="WjA-gEvJJwSOxTceD3pm-226">
          <mxGeometry x="0.0316" y="-2" relative="1" as="geometry">
            <mxPoint as="offset" />
          </mxGeometry>
        </mxCell>
        <mxCell id="WjA-gEvJJwSOxTceD3pm-225" value="用户文档" style="html=1;dashed=0;whiteSpace=wrap;shape=partialRectangle;right=0;left=0;fontSize=15;" vertex="1" parent="1">
          <mxGeometry x="3869.9999999999995" y="625" width="100" height="90" as="geometry" />
        </mxCell>
        <mxCell id="WjA-gEvJJwSOxTceD3pm-231" value="" style="edgeStyle=orthogonalEdgeStyle;rounded=0;orthogonalLoop=1;jettySize=auto;html=1;fontSize=15;" edge="1" parent="1" source="WjA-gEvJJwSOxTceD3pm-230" target="WjA-gEvJJwSOxTceD3pm-223">
          <mxGeometry relative="1" as="geometry">
            <Array as="points">
              <mxPoint x="3920" y="960" />
              <mxPoint x="3920" y="960" />
            </Array>
          </mxGeometry>
        </mxCell>
        <mxCell id="WjA-gEvJJwSOxTceD3pm-232" value="修改课程" style="edgeLabel;html=1;align=center;verticalAlign=middle;resizable=0;points=[];fontSize=15;" vertex="1" connectable="0" parent="WjA-gEvJJwSOxTceD3pm-231">
          <mxGeometry x="0.0539" y="-2" relative="1" as="geometry">
            <mxPoint x="-2" y="-10" as="offset" />
          </mxGeometry>
        </mxCell>
        <mxCell id="WjA-gEvJJwSOxTceD3pm-230" value="管理员" style="rounded=0;whiteSpace=wrap;html=1;fontSize=15;" vertex="1" parent="1">
          <mxGeometry x="3880" y="980" width="110" height="70" as="geometry" />
        </mxCell>
        <mxCell id="WjA-gEvJJwSOxTceD3pm-233" style="edgeStyle=orthogonalEdgeStyle;rounded=0;orthogonalLoop=1;jettySize=auto;html=1;exitX=0.75;exitY=1;exitDx=0;exitDy=0;entryX=0.684;entryY=0;entryDx=0;entryDy=0;entryPerimeter=0;fontSize=15;" edge="1" parent="1" source="WjA-gEvJJwSOxTceD3pm-223" target="WjA-gEvJJwSOxTceD3pm-230">
          <mxGeometry relative="1" as="geometry" />
        </mxCell>
        <mxCell id="WjA-gEvJJwSOxTceD3pm-234" value="课程信息&lt;div&gt;用户信息&lt;/div&gt;" style="edgeLabel;html=1;align=center;verticalAlign=middle;resizable=0;points=[];fontSize=15;" vertex="1" connectable="0" parent="WjA-gEvJJwSOxTceD3pm-233">
          <mxGeometry x="0.2633" relative="1" as="geometry">
            <mxPoint x="35" as="offset" />
          </mxGeometry>
        </mxCell>
        <mxCell id="WjA-gEvJJwSOxTceD3pm-236" style="edgeStyle=orthogonalEdgeStyle;rounded=0;orthogonalLoop=1;jettySize=auto;html=1;exitX=1;exitY=0.75;exitDx=0;exitDy=0;entryX=-0.022;entryY=0.822;entryDx=0;entryDy=0;entryPerimeter=0;fontSize=15;" edge="1" parent="1" source="WjA-gEvJJwSOxTceD3pm-223" target="WjA-gEvJJwSOxTceD3pm-224">
          <mxGeometry relative="1" as="geometry" />
        </mxCell>
        <mxCell id="WjA-gEvJJwSOxTceD3pm-237" value="修改课程" style="edgeLabel;html=1;align=center;verticalAlign=middle;resizable=0;points=[];fontSize=15;" vertex="1" connectable="0" parent="WjA-gEvJJwSOxTceD3pm-236">
          <mxGeometry x="-0.0801" relative="1" as="geometry">
            <mxPoint as="offset" />
          </mxGeometry>
        </mxCell>
      </root>
    </mxGraphModel>
  </diagram>
</mxfile>
